<svg width="242" height="52" viewBox="0 0 242 52" fill="none" xmlns="http://www.w3.org/2000/svg">
<path d="M3.7927 30.8432V34.0347H11.951V35.7919H1.74865V24.1731H11.933V25.9303H3.7927V29.1577H10.4628V30.8432H3.7927ZM31.2983 34.734H30.3838L36.5518 24.1731H38.5779V35.7919H36.5518V27.0957L37.018 27.2212L31.9617 35.7919H29.7383L24.682 27.2571L25.1661 27.1137V35.7919H23.1221V24.1731H25.1661L31.2983 34.734ZM60.5529 24.1731L55.8193 32.0086V35.7919H53.7752V32.0086L49.0416 24.1731H51.3905L55.389 31.0225H54.2773L58.2219 24.1731H60.5529Z" fill="#FEFCFD"/>
<path d="M122.348 35.7919V24.1731H128.265C129.688 24.1731 130.776 24.4421 131.529 24.98C132.294 25.5059 132.676 26.2709 132.676 27.275C132.676 27.9205 132.527 28.4345 132.228 28.817C131.941 29.1876 131.529 29.4685 130.991 29.6598C130.453 29.8391 129.819 29.9526 129.09 30.0004L129.162 29.8928C129.688 29.9048 130.184 29.9526 130.65 30.0363C131.128 30.108 131.547 30.2395 131.905 30.4308C132.276 30.622 132.563 30.891 132.766 31.2376C132.981 31.5723 133.089 32.0086 133.089 32.5465C133.089 33.2637 132.909 33.8554 132.551 34.3216C132.192 34.7878 131.696 35.1464 131.063 35.3974C130.429 35.6365 129.7 35.768 128.875 35.7919H122.348ZM124.393 34.0527H128.57C129.347 34.0527 129.951 33.9212 130.381 33.6582C130.812 33.3833 131.027 32.9589 131.027 32.3852C131.027 31.9309 130.895 31.6022 130.632 31.399C130.369 31.1838 130.029 31.0464 129.61 30.9866C129.204 30.9268 128.768 30.8969 128.301 30.8969H124.393V34.0527ZM124.393 29.1936H128.14C128.917 29.1936 129.515 29.0621 129.933 28.7991C130.363 28.5242 130.578 28.0938 130.578 27.5081C130.578 26.9344 130.363 26.5279 129.933 26.2889C129.515 26.0378 128.965 25.9123 128.283 25.9123H124.393V29.1936ZM145.976 30.8432V34.0347H154.134V35.7919H143.932V24.1731H154.116V25.9303H145.976V29.1577H152.646V30.8432H145.976ZM166.919 33.0665V31.3273H173.84V33.0665H166.919ZM164.23 35.7919L169.304 24.1731H171.491L176.602 35.7919H174.396L169.949 25.3027H170.846L166.417 35.7919H164.23ZM196.59 30.8969V24.1731H198.616V31.0583C198.616 31.7875 198.515 32.427 198.311 32.9769C198.12 33.5267 197.845 33.9929 197.487 34.3754C197.128 34.7579 196.704 35.0747 196.214 35.3257C195.723 35.5648 195.186 35.7381 194.6 35.8457C194.026 35.9533 193.416 36.0071 192.771 36.0071C192.102 36.0071 191.468 35.9533 190.87 35.8457C190.273 35.7381 189.729 35.5648 189.239 35.3257C188.749 35.0747 188.324 34.7579 187.966 34.3754C187.619 33.9929 187.344 33.5267 187.141 32.9769C186.95 32.427 186.854 31.7875 186.854 31.0583V24.1731H188.898V30.8969C188.898 31.8054 189.065 32.4987 189.4 32.9769C189.747 33.443 190.213 33.7658 190.799 33.9451C191.384 34.1244 192.042 34.214 192.771 34.214C193.476 34.214 194.116 34.1244 194.689 33.9451C195.263 33.7658 195.723 33.443 196.07 32.9769C196.417 32.4987 196.59 31.8054 196.59 30.8969ZM209.025 24.1731H220.178V25.9303H209.025V24.1731ZM213.597 25.7151H215.623V35.7919H213.597V25.7151ZM241.263 24.1731L236.53 32.0086V35.7919H234.486V32.0086L229.752 24.1731H232.101L236.099 31.0225H234.988L238.932 24.1731H241.263Z" fill="#E5B3AB"/>
<path d="M90.7458 42.705H77.4783L76.2583 22.555C76.1058 20.475 78.0883 18.785 80.3758 18.785H87.8483C90.2883 18.785 92.1183 20.475 91.9658 22.555L90.7458 42.705Z" stroke="#E5B3AB" stroke-miterlimit="10" stroke-linecap="round" stroke-linejoin="round"/>
<path d="M88.4582 13.715H79.7658V18.915H88.4582V13.715Z" stroke="#E5B3AB" stroke-miterlimit="10" stroke-linecap="round" stroke-linejoin="round"/>
<path d="M86.9332 37.245H81.5957L80.0707 24.765H88.3058L86.9332 37.245Z" stroke="#E5B3AB" stroke-miterlimit="10" stroke-linecap="round" stroke-linejoin="round"/>
<path d="M90.8983 40.495H106.148V21.515C106.148 19.565 104.318 18.005 102.031 18.005H95.4733C93.6433 18.005 91.9657 19.045 91.5082 20.605" stroke="#E5B3AB" stroke-miterlimit="10" stroke-linecap="round" stroke-linejoin="round"/>
<path d="M103.403 18.005H93.7957V10.985C96.9982 10.205 100.201 10.205 103.403 10.985V18.005Z" stroke="#E5B3AB" stroke-miterlimit="10" stroke-linecap="round" stroke-linejoin="round"/>
</svg>
